<?xml version="1.0" encoding="UTF-8"?>
<svg xmlns="http://www.w3.org/2000/svg" xmlns:xlink="http://www.w3.org/1999/xlink" width="921pt" height="300pt" viewBox="0 0 921 300" version="1.1">
<g id="surface1">
<path style=" stroke:none;fill-rule:nonzero;fill:rgb(100%,100%,100%);fill-opacity:1;" d="M 831.109375 6.71875 C 828.828125 7.472656 824.386719 10.308594 820.65625 13.414062 C 819.117188 14.695312 815.683594 18.132812 814.402344 19.671875 C 807.082031 28.480469 802.890625 38.84375 802.097656 50.121094 C 801.90625 52.914062 802.007812 56.902344 802.339844 59.75 C 803.644531 70.917969 808.546875 81.515625 816.136719 89.605469 C 816.707031 90.210938 817.726562 91.355469 818.410156 92.136719 C 819.082031 92.921875 820.988281 94.9375 822.636719 96.617188 C 827.507812 101.5625 829.574219 104.144531 831.507812 107.664062 C 833.890625 112.003906 834.90625 115.695312 835.347656 121.667969 C 835.550781 124.347656 835.632812 148.535156 835.632812 204.167969 C 835.632812 266.683594 835.59375 262.40625 836.140625 263.226562 C 836.441406 263.6875 837.058594 264.113281 837.742188 264.324219 C 838.210938 264.472656 839.769531 264.480469 860.675781 264.472656 C 881.859375 264.472656 883.128906 264.460938 883.652344 264.304688 C 884.4375 264.074219 884.898438 263.578125 885.136719 262.722656 C 885.292969 262.148438 885.3125 261.746094 885.3125 258.816406 C 885.3125 257.019531 885.300781 231.0625 885.285156 201.136719 C 885.257812 148.269531 885.339844 124.402344 885.542969 121.667969 C 885.984375 115.695312 886.996094 112.003906 889.382812 107.664062 C 891.316406 104.144531 893.378906 101.5625 898.25 96.617188 C 899.898438 94.9375 901.804688 92.921875 902.480469 92.136719 C 903.160156 91.355469 904.183594 90.210938 904.753906 89.605469 C 912.34375 81.515625 917.242188 70.917969 918.550781 59.75 C 919 55.945312 919 51.394531 918.550781 47.589844 C 917.34375 37.289062 913.246094 27.808594 906.484375 19.671875 C 905.203125 18.132812 901.769531 14.695312 900.230469 13.414062 C 896.464844 10.273438 891.960938 7.40625 889.703125 6.6875 C 888.800781 6.402344 887.722656 6.367188 887.28125 6.585938 C 886.960938 6.753906 886.617188 7.011719 886.351562 7.824219 C 886.261719 8.082031 886.222656 13.210938 886.1875 31.417969 L 886.132812 54.683594 L 885.929688 55.578125 C 885.449219 57.652344 884.710938 59.160156 883.367188 60.8125 C 883.035156 61.214844 882.898438 61.40625 882.621094 61.664062 C 881.808594 62.429688 881.359375 62.78125 879.96875 63.714844 C 877.464844 65.371094 875.539062 66.375 872.894531 67.390625 C 864.828125 70.496094 855.875 70.476562 847.808594 67.316406 C 845.238281 66.320312 843.378906 65.335938 840.917969 63.714844 C 839.527344 62.78125 839.078125 62.382812 838.25 61.613281 C 837.984375 61.367188 837.851562 61.214844 837.519531 60.8125 C 836.175781 59.160156 835.4375 57.652344 834.960938 55.578125 L 834.757812 54.683594 L 834.703125 31.417969 C 834.664062 13.210938 834.628906 8.082031 834.535156 7.824219 C 834.238281 6.910156 833.929688 6.753906 833.605469 6.585938 C 833.144531 6.359375 832.03125 6.414062 831.109375 6.71875 Z M 831.109375 6.71875 "/>
<path style=" stroke:none;fill-rule:nonzero;fill:rgb(100%,100%,100%);fill-opacity:1;" d="M 263.296875 61.730469 C 259.804688 61.816406 259.613281 61.84375 258.746094 62.394531 C 257.613281 63.113281 256.859375 63.960938 256.222656 65.269531 C 255.726562 66.273438 255.429688 67.535156 255.125 69.976562 C 255.070312 70.382812 254.921875 71.460938 254.804688 72.375 C 254.675781 73.285156 254.378906 75.691406 254.148438 77.71875 C 253.394531 84.371094 253.007812 87.261719 252.824219 87.605469 C 252.703125 87.824219 252.554688 87.878906 250.835938 88.359375 C 248.035156 89.144531 242.65625 91.003906 240.351562 91.988281 C 238.015625 92.996094 231.125 96.292969 230.113281 96.902344 C 229.964844 96.984375 229.632812 97.1875 229.394531 97.335938 C 228.683594 97.765625 228.324219 97.859375 228.011719 97.695312 C 227.746094 97.566406 226.804688 96.863281 225.277344 95.683594 C 224.84375 95.351562 224.292969 94.921875 224.035156 94.726562 C 223.5 94.320312 221.335938 92.597656 220.257812 91.730469 C 218.710938 90.488281 217.117188 89.234375 215.789062 88.230469 C 215.359375 87.898438 214.757812 87.449219 214.453125 87.207031 C 214.152344 86.976562 213.691406 86.628906 213.421875 86.425781 C 212.457031 85.6875 211.027344 84.792969 210.449219 84.554688 C 209.066406 83.984375 207.527344 83.835938 206.257812 84.140625 C 205.449219 84.332031 204.96875 84.582031 204.414062 85.109375 C 204.214844 85.300781 203.714844 85.761719 203.3125 86.140625 C 200.628906 88.636719 187.921875 101.296875 184.109375 105.265625 C 181.832031 107.625 181.023438 108.546875 180.820312 108.980469 C 180.09375 110.5 180.210938 112.738281 181.113281 114.519531 C 181.695312 115.667969 183.105469 117.59375 186.445312 121.804688 C 192.140625 128.957031 193.703125 130.972656 194.109375 131.691406 L 194.332031 132.105469 L 194.148438 132.539062 C 193.859375 133.210938 192.765625 135.414062 192.371094 136.113281 C 191.53125 137.617188 189.476562 142.242188 188.296875 145.300781 C 187.957031 146.183594 187.285156 148.09375 186.804688 149.539062 C 186.328125 150.984375 185.792969 152.460938 185.628906 152.820312 L 185.324219 153.484375 L 184.6875 153.628906 C 184.015625 153.777344 183.058594 153.90625 179.777344 154.285156 C 178.636719 154.414062 177.597656 154.542969 177.449219 154.570312 L 177.199219 154.625 L 177.21875 123.703125 C 177.238281 106.695312 177.21875 92.78125 177.183594 92.78125 C 177.136719 92.78125 177.109375 92.277344 177.109375 91.648438 C 177.109375 89.722656 176.796875 88.847656 175.929688 88.269531 C 174.980469 87.640625 177.035156 87.695312 151.136719 87.652344 L 127.695312 87.613281 L 126.867188 88.359375 C 121.167969 93.484375 111.746094 109.589844 103.457031 128.328125 C 99.53125 137.230469 93.730469 151.105469 91.132812 157.832031 C 89.308594 162.558594 88.960938 163.453125 88.875 163.5 C 88.785156 163.554688 88.40625 162.652344 87.183594 159.453125 C 86.65625 158.082031 85.570312 155.25 84.777344 153.179688 C 79.058594 138.253906 75.015625 129.101562 67.777344 114.710938 C 65.429688 110.039062 63.898438 107.136719 62.417969 104.53125 C 58.328125 97.34375 54.109375 91.445312 50.914062 88.453125 L 50.019531 87.621094 L 26.550781 87.640625 C 4.625 87.667969 3.058594 87.679688 2.625 87.824219 C 1.511719 88.210938 0.921875 88.847656 0.664062 89.953125 C 0.515625 90.570312 0.507812 96.402344 0.507812 176.074219 C 0.515625 255.007812 0.523438 261.578125 0.664062 262.195312 C 0.921875 263.320312 1.539062 263.972656 2.671875 264.324219 C 3.140625 264.472656 4.6875 264.480469 25.511719 264.472656 C 46.601562 264.472656 47.875 264.460938 48.398438 264.304688 C 49.125 264.085938 49.632812 263.578125 49.871094 262.8125 C 50.066406 262.207031 50.054688 262.34375 50.277344 204.09375 C 50.332031 188.964844 50.386719 176.582031 50.40625 176.574219 C 50.414062 176.5625 51.605469 181.539062 53.039062 187.621094 C 61.714844 224.4375 63.179688 230.511719 63.660156 231.863281 C 63.796875 232.25 64.394531 232.710938 65.011719 232.90625 C 65.5 233.054688 66.917969 233.0625 88.644531 233.0625 C 110.371094 233.0625 111.789062 233.054688 112.277344 232.90625 C 113.082031 232.65625 113.503906 232.261719 113.734375 231.542969 C 114.644531 228.65625 121.617188 201.015625 125.367188 185.390625 L 127.605469 176.054688 L 127.652344 219.113281 C 127.6875 254.734375 127.714844 262.242188 127.816406 262.535156 C 128.121094 263.414062 128.785156 264.019531 129.769531 264.324219 C 130.238281 264.472656 131.785156 264.480469 152.609375 264.472656 C 173.699219 264.472656 174.972656 264.460938 175.496094 264.304688 C 176.222656 264.09375 176.722656 263.578125 176.980469 262.8125 C 177.144531 262.277344 177.15625 261.625 177.183594 231.117188 L 177.199219 199.964844 L 177.6875 200.039062 C 177.945312 200.078125 179.292969 200.242188 180.652344 200.398438 C 183.40625 200.710938 184.910156 200.933594 185.128906 201.042969 C 185.433594 201.210938 185.914062 202.425781 187.652344 207.402344 C 189.117188 211.601562 190.839844 215.582031 192.921875 219.609375 C 193.316406 220.367188 193.796875 221.332031 193.988281 221.757812 L 194.339844 222.523438 L 194.109375 222.9375 C 193.703125 223.664062 192.148438 225.671875 186.445312 232.832031 C 183.105469 237.042969 181.695312 238.96875 181.113281 240.121094 C 180.210938 241.898438 180.09375 244.136719 180.820312 245.65625 C 181.023438 246.089844 181.832031 247.011719 184.109375 249.371094 C 187.921875 253.339844 200.628906 266 203.3125 268.5 C 203.714844 268.875 204.214844 269.335938 204.414062 269.53125 C 204.96875 270.054688 205.449219 270.304688 206.257812 270.496094 C 207.527344 270.800781 209.066406 270.652344 210.449219 270.082031 C 211.027344 269.84375 212.457031 268.949219 213.421875 268.210938 C 213.691406 268.011719 214.152344 267.660156 214.453125 267.429688 C 214.757812 267.191406 215.359375 266.738281 215.789062 266.40625 C 217.117188 265.402344 218.710938 264.148438 220.257812 262.90625 C 221.335938 262.039062 223.5 260.316406 224.035156 259.910156 C 224.292969 259.71875 224.84375 259.285156 225.277344 258.953125 C 226.804688 257.773438 227.746094 257.074219 228.011719 256.945312 C 228.324219 256.777344 228.683594 256.871094 229.394531 257.304688 C 230.195312 257.800781 230.371094 257.882812 232.652344 259.042969 C 238.457031 261.976562 245.214844 264.636719 250.742188 266.183594 C 252.464844 266.664062 252.613281 266.71875 252.730469 266.941406 C 252.914062 267.28125 253.300781 270.175781 254.058594 276.828125 C 254.289062 278.855469 254.582031 281.257812 254.710938 282.171875 C 254.832031 283.082031 254.980469 284.160156 255.035156 284.566406 C 255.355469 287.089844 255.632812 288.28125 256.175781 289.359375 C 256.683594 290.378906 257.316406 291.183594 258.082031 291.753906 C 259.078125 292.507812 259.492188 292.65625 260.964844 292.757812 C 262.707031 292.878906 290.953125 292.878906 292.648438 292.757812 C 294.121094 292.65625 294.535156 292.507812 295.53125 291.753906 C 296.292969 291.183594 296.929688 290.378906 297.4375 289.359375 C 298.191406 287.847656 298.414062 286.53125 299.554688 276.503906 C 300.410156 269.003906 300.707031 266.941406 300.945312 266.703125 C 301.113281 266.527344 303.09375 265.808594 304.777344 265.308594 C 306.96875 264.65625 307.265625 264.554688 309.132812 263.816406 C 310.101562 263.441406 311.132812 263.042969 311.4375 262.941406 C 312.355469 262.636719 315.453125 261.257812 317.820312 260.09375 C 319.042969 259.496094 320.058594 259.007812 320.074219 259.007812 C 320.101562 259.015625 321.511719 258.296875 321.84375 258.105469 C 322 258.011719 322.324219 257.820312 322.5625 257.671875 C 323.269531 257.238281 323.628906 257.148438 323.941406 257.3125 C 324.210938 257.441406 325.148438 258.140625 326.679688 259.320312 C 327.113281 259.652344 327.671875 260.085938 327.921875 260.28125 C 328.457031 260.683594 330.621094 262.40625 331.699219 263.273438 C 333.246094 264.519531 334.839844 265.769531 336.164062 266.773438 C 336.597656 267.105469 337.195312 267.558594 337.5 267.796875 C 337.804688 268.027344 338.265625 268.378906 338.53125 268.582031 C 339.5 269.316406 340.925781 270.210938 341.507812 270.453125 C 342.886719 271.023438 344.425781 271.171875 345.699219 270.867188 C 346.507812 270.671875 346.988281 270.425781 347.539062 269.898438 C 347.742188 269.707031 348.238281 269.246094 348.644531 268.867188 C 351.324219 266.371094 364.035156 253.710938 367.847656 249.738281 C 370.121094 247.378906 370.933594 246.457031 371.136719 246.027344 C 371.863281 244.503906 371.742188 242.265625 370.839844 240.488281 C 370.261719 239.335938 368.851562 237.410156 365.507812 233.199219 C 359.808594 226.042969 358.25 224.03125 357.84375 223.304688 L 357.613281 222.890625 L 357.964844 222.125 C 358.160156 221.703125 358.574219 220.84375 358.894531 220.207031 C 361.5 215.085938 363.824219 209.476562 365.636719 203.917969 C 366.050781 202.636719 366.457031 201.53125 366.519531 201.46875 C 366.769531 201.210938 371.753906 200.4375 373.761719 200.335938 L 374.9375 200.28125 L 374.957031 231.367188 C 374.984375 261.902344 375 262.421875 375 262.8125 C 375 263.375 375.3125 263.730469 375.605469 263.914062 C 375.929688 264.140625 376.511719 264.300781 377.011719 264.296875 L 399.53125 264.324219 C 423.007812 264.351562 450.773438 264.222656 453.867188 264.066406 C 456.363281 263.9375 458.980469 263.570312 462.867188 262.765625 C 476.46875 259.992188 487.070312 254.824219 497.246094 246.015625 C 503.335938 240.738281 508.144531 234.390625 512.113281 226.382812 C 516.046875 218.457031 518.570312 210.914062 520.21875 202.148438 C 521.195312 196.960938 521.855469 192.070312 522.113281 188.191406 C 522.382812 184.101562 522.4375 171.339844 522.199219 165.753906 C 522.003906 161.183594 521.480469 156.816406 520.402344 150.875 C 517.824219 136.695312 512.433594 123.816406 505.09375 114.296875 C 501.742188 109.957031 497.855469 106.199219 492.726562 102.347656 C 485.191406 96.679688 477.050781 92.800781 467.5 90.3125 C 463.1875 89.179688 457.597656 88.183594 454.558594 87.992188 C 451.621094 87.808594 437.253906 87.722656 407.347656 87.714844 C 379.183594 87.714844 378.6875 87.6875 377.527344 87.699219 C 376.632812 87.710938 376.066406 87.863281 375.621094 88.34375 C 375.148438 88.851562 374.945312 89.21875 374.945312 90.203125 C 374.945312 91.203125 374.9375 87.707031 374.9375 122.394531 L 374.9375 154.265625 L 373.769531 154.210938 C 372.542969 154.144531 369.597656 153.75 367.710938 153.398438 C 366.695312 153.214844 366.621094 153.179688 366.464844 152.921875 C 366.363281 152.765625 365.96875 151.660156 365.582031 150.46875 C 363.914062 145.355469 361.457031 139.441406 358.949219 134.519531 C 358.601562 133.839844 358.160156 132.9375 357.964844 132.511719 L 357.613281 131.746094 L 357.84375 131.332031 C 358.25 130.605469 359.808594 128.597656 365.507812 121.4375 C 368.851562 117.226562 370.261719 115.300781 370.839844 114.148438 C 371.742188 112.371094 371.863281 110.132812 371.136719 108.613281 C 370.933594 108.179688 370.121094 107.257812 367.847656 104.898438 C 364.035156 100.925781 351.324219 88.269531 348.644531 85.769531 C 348.238281 85.394531 347.742188 84.933594 347.539062 84.738281 C 346.988281 84.214844 346.507812 83.964844 345.699219 83.773438 C 344.425781 83.46875 342.886719 83.613281 341.507812 84.1875 C 340.925781 84.425781 339.5 85.320312 338.53125 86.054688 C 338.265625 86.257812 337.804688 86.609375 337.5 86.839844 C 337.195312 87.078125 336.597656 87.53125 336.164062 87.863281 C 334.839844 88.867188 333.246094 90.121094 331.699219 91.363281 C 330.621094 92.230469 328.457031 93.953125 327.921875 94.359375 C 327.671875 94.550781 327.113281 94.984375 326.679688 95.316406 C 325.148438 96.496094 324.210938 97.195312 323.941406 97.324219 C 323.628906 97.492188 323.269531 97.398438 322.5625 96.964844 C 321.789062 96.488281 321.59375 96.386719 320.09375 95.628906 C 319.28125 95.214844 318.574219 94.847656 318.527344 94.800781 C 318.105469 94.46875 312.78125 92.128906 309.429688 90.800781 C 307.355469 89.992188 307.078125 89.890625 304.871094 89.234375 C 303.183594 88.738281 301.203125 88.019531 301.039062 87.84375 C 300.796875 87.605469 300.503906 85.539062 299.648438 78.039062 C 298.503906 68.015625 298.285156 66.699219 297.527344 65.1875 C 297.023438 64.164062 296.386719 63.363281 295.621094 62.792969 C 294.664062 62.0625 294.1875 61.890625 292.96875 61.804688 C 291.476562 61.703125 267.164062 61.640625 263.296875 61.730469 Z M 431.394531 129.359375 C 439.757812 129.507812 441.011719 129.601562 443.941406 130.335938 C 448.398438 131.453125 452.367188 133.257812 455.894531 135.753906 C 458.886719 137.875 462.203125 141.257812 464.394531 144.390625 C 467.777344 149.246094 470.042969 155.417969 471.359375 163.3125 C 471.875 166.402344 471.992188 168.296875 472.078125 174.277344 C 472.152344 180.351562 472.003906 184.007812 471.542969 187.175781 C 469.582031 200.777344 464.128906 210.496094 455.15625 216.394531 C 451.714844 218.652344 447.875 220.382812 444.457031 221.222656 C 441.289062 221.996094 438.40625 222.246094 430.410156 222.4375 C 425.144531 222.558594 425.242188 222.566406 424.855469 221.941406 C 424.671875 221.636719 424.671875 221.398438 424.671875 175.910156 C 424.671875 134.804688 424.691406 130.152344 424.8125 129.90625 C 424.984375 129.582031 425.457031 129.269531 425.777344 129.269531 C 425.90625 129.269531 428.429688 129.316406 431.394531 129.359375 Z M 279.523438 135.351562 C 283.261719 135.5625 284.257812 135.699219 286.9375 136.382812 C 294.5625 138.316406 300.984375 142.09375 306.847656 148.101562 C 310.347656 151.6875 312.800781 155.105469 314.761719 159.167969 C 316.574219 162.917969 317.910156 167.347656 318.335938 171.007812 C 318.777344 174.777344 318.777344 180.230469 318.335938 183.675781 C 317.957031 186.699219 316.851562 190.585938 315.488281 193.71875 C 312.578125 200.425781 307.640625 206.554688 301.398438 211.214844 C 295.539062 215.59375 288.898438 218.199219 281.457031 219.046875 C 272.5625 220.0625 264.390625 218.726562 256.886719 215.023438 C 252.566406 212.902344 248.871094 210.195312 245.253906 206.515625 C 239.9375 201.097656 236.308594 194.722656 234.53125 187.683594 C 232.671875 180.292969 232.929688 171.71875 235.234375 164.328125 C 236.613281 159.90625 239.320312 154.875 242.1875 151.429688 C 244.039062 149.199219 248.382812 144.988281 250.511719 143.367188 C 253.78125 140.886719 258.332031 138.546875 262.613281 137.148438 C 265.3125 136.273438 269.132812 135.453125 271.601562 135.222656 C 272.246094 135.164062 277.738281 135.25 279.523438 135.351562 Z M 279.523438 135.351562 "/>
<path style=" stroke:none;fill-rule:nonzero;fill:rgb(100%,100%,100%);fill-opacity:1;" d="M 693.625 87.722656 C 692.234375 87.953125 691.421875 88.683594 691.15625 89.925781 C 691.042969 90.480469 691.027344 102.300781 691.042969 176.644531 L 691.074219 262.730469 C 691.09375 263.015625 691.136719 263.40625 691.570312 263.847656 C 691.980469 264.195312 692.578125 264.386719 692.964844 264.386719 C 693.617188 264.386719 694.988281 264.390625 715.894531 264.378906 C 737.078125 264.378906 738.347656 264.371094 738.871094 264.214844 C 739.601562 264 740.097656 263.484375 740.347656 262.722656 C 740.519531 262.1875 740.53125 261.585938 740.558594 238.15625 L 740.574219 214.144531 L 761.648438 214.101562 C 774.9375 214.074219 783.191406 214.015625 784 213.953125 C 784.710938 213.898438 786.054688 213.730469 786.996094 213.574219 C 794.34375 212.359375 800.679688 209.933594 806.472656 206.140625 C 815.261719 200.371094 821.171875 192.890625 825.34375 182.238281 C 830.050781 170.234375 831.699219 154.808594 829.949219 139.128906 C 829.066406 131.128906 827.277344 124.015625 824.597656 117.796875 C 823.234375 114.636719 821.035156 110.640625 819.246094 108.085938 C 817.15625 105.09375 813.316406 100.964844 810.296875 98.484375 C 804.53125 93.742188 797.320312 90.351562 789.574219 88.738281 C 786.496094 88.101562 784.8125 87.898438 781.699219 87.789062 C 778.320312 87.679688 694.3125 87.613281 693.625 87.722656 Z M 759.226562 129.085938 C 764.898438 129.230469 765.929688 129.34375 767.835938 129.96875 C 773.050781 131.691406 777.214844 136.113281 779.148438 142.003906 C 780.105469 144.914062 780.316406 146.488281 780.316406 150.597656 C 780.316406 153.742188 780.226562 155.050781 779.894531 157.09375 C 779.183594 161.351562 776.769531 165.8125 773.640625 168.585938 C 771.523438 170.464844 768.722656 171.910156 766.179688 172.425781 C 764.484375 172.765625 758.425781 172.933594 747.601562 172.941406 L 740.667969 172.941406 L 740.667969 128.992188 L 748.203125 128.992188 C 752.335938 128.992188 757.300781 129.039062 759.226562 129.085938 Z M 759.226562 129.085938 "/>
<path style=" stroke:none;fill-rule:nonzero;fill:rgb(100%,100%,100%);fill-opacity:1;" d="M 574.496094 87.785156 C 574.167969 87.785156 573.867188 87.992188 573.660156 88.191406 C 573.292969 88.550781 573.175781 88.957031 572.503906 90.753906 C 572.078125 91.898438 570.246094 96.828125 568.421875 101.71875 C 558.394531 128.640625 530.136719 204.777344 521.726562 227.535156 C 513.292969 250.375 510.871094 257.15625 510.132812 259.921875 C 509.671875 261.644531 509.828125 262.628906 510.703125 263.503906 C 510.90625 263.707031 511.265625 263.964844 511.503906 264.085938 C 511.9375 264.296875 511.957031 264.296875 516.589844 264.34375 C 519.148438 264.371094 529.410156 264.371094 539.382812 264.34375 C 556.183594 264.296875 557.5625 264.277344 557.988281 264.140625 C 558.679688 263.902344 559.296875 263.457031 559.5625 262.996094 C 560.085938 262.105469 561.78125 257.800781 566.238281 246.015625 C 568.109375 241.078125 569.648438 237.03125 569.667969 237.015625 C 569.675781 237.003906 582.386719 236.96875 597.914062 236.933594 L 626.140625 236.867188 L 626.5 237.871094 C 626.695312 238.414062 628.085938 242.203125 629.59375 246.285156 C 634.910156 260.640625 635.703125 262.609375 636.476562 263.382812 C 636.910156 263.816406 637.582031 264.121094 638.390625 264.25 C 638.84375 264.316406 645.878906 264.34375 661.324219 264.324219 L 683.613281 264.296875 C 684.132812 264.300781 684.636719 264.066406 685.070312 263.722656 C 685.476562 263.378906 685.667969 262.730469 685.667969 261.625 C 685.765625 259.691406 684.652344 256.566406 665.074219 203.671875 C 635.101562 122.726562 624.574219 94.488281 623.304688 91.660156 C 623.183594 91.390625 622.882812 90.609375 622.632812 89.925781 C 622.125 88.535156 621.75 88.039062 621.066406 87.824219 C 620.542969 87.667969 575.136719 87.785156 574.496094 87.785156 Z M 599.265625 164.90625 C 600.085938 167.074219 602.8125 174.269531 605.328125 180.902344 C 607.832031 187.535156 609.867188 192.992188 609.832031 193.019531 C 609.757812 193.09375 586.058594 193.09375 585.984375 193.011719 C 585.949219 192.980469 587.707031 188.089844 589.902344 182.136719 C 592.082031 176.195312 594.726562 169 595.777344 166.152344 C 596.828125 163.296875 597.703125 160.964844 597.730469 160.964844 C 597.757812 160.964844 598.449219 162.734375 599.265625 164.90625 Z M 599.265625 164.90625 "/>
</g>
</svg>
